<svg width="18" height="18" viewBox="0 0 18 18" fill="none" xmlns="http://www.w3.org/2000/svg">
<g style="mix-blend-mode:luminosity">
<path d="M4.21875 9.00001C4.21875 8.1082 4.46446 7.27278 4.89132 6.55746V3.52319H1.85706C0.652781 5.08722 0 6.99336 0 9.00001C0 11.0067 0.652781 12.9128 1.85706 14.4768H4.89132V11.4426C4.46446 10.7272 4.21875 9.89182 4.21875 9.00001Z" fill="#FBBD00"/>
<path d="M9 13.7812L6.89062 15.8905L9 17.9999C11.0067 17.9999 12.9128 17.3471 14.4768 16.1428V13.1118H11.4458C10.7242 13.5402 9.88527 13.7812 9 13.7812Z" fill="#0F9D58"/>
<path d="M4.89132 11.4426L1.85706 14.4769C2.09549 14.7865 2.35511 15.0831 2.63605 15.3641C4.33592 17.0639 6.59601 18.0001 9 18.0001V13.7813C7.2554 13.7813 5.72635 12.842 4.89132 11.4426Z" fill="#31AA52"/>
<path d="M18 9.00008C18 8.45253 17.9504 7.90395 17.8526 7.36964L17.7735 6.93726H9V11.156H13.2698C12.8552 11.9808 12.2176 12.6537 11.4457 13.112L14.4768 16.1431C14.7864 15.9046 15.083 15.645 15.3639 15.3641C17.0638 13.6642 18 11.4041 18 9.00008Z" fill="#3C79E6"/>
<path d="M12.3809 5.61913L12.7537 5.992L15.7369 3.00892L15.364 2.63605C13.6641 0.936176 11.404 0 9 0L6.89062 2.10938L9 4.21875C10.2771 4.21875 11.4778 4.71607 12.3809 5.61913Z" fill="#CF2D48"/>
<path d="M9 4.21875V0C6.59602 0 4.33593 0.936176 2.63602 2.63602C2.35508 2.91695 2.09545 3.21349 1.85703 3.52318L4.89129 6.55745C5.72636 5.15812 7.25541 4.21875 9 4.21875Z" fill="#EB4132"/>
</g>
</svg>
